<svg width="1080" height="390" version="1.1" xmlns="http://www.w3.org/2000/svg" desc="Created with imagetracer.js version 1.2.6" ><path fill="rgb(0,0,0)" stroke="rgb(0,0,0)" stroke-width="1" opacity="0" d="M 0 0 L 1080 0 L 1080 390 L 0 390 L 0 0 Z M 758 79 L 741 83 L 723 91 L 706 102 L 697 106 L 670 124 L 648 135 L 643 137 L 639 137 L 636 139 L 629 139 L 626 141 L 618 141 L 614 143 L 605 143 L 598 145 L 588 145 L 568 141 L 566 139 L 563 139 L 550 134 L 545 130 L 518 117 L 509 115 L 507 113 L 503 113 L 500 111 L 489 111 L 488 110 L 477 111 Q 475 114 470 113 L 457 120 L 450 126 Q 447 125 448 128 L 410 152 L 402 154 L 400 156 L 395 156 L 391 158 Q 384 156 383 159 L 376 159 L 375 160 L 352 160 L 346 158 L 341 158 L 338 156 L 333 156 L 326 152 L 323 152 L 304 141 L 271 117 Q 267 118 268 115 L 266 115 L 261 111 L 236 98 L 216 93 L 202 93 L 188 96 L 176 102 L 158 115 Q 155 114 156 117 L 154 117 L 154 119 L 123 145 L 111 152 L 90 161 L 75 164 L 63 163 L 52 159 L 48 161 L 51 164 Q 53 163 52 166 Q 56 165 59 168 L 77 170 L 78 171 L 89 170 Q 90 167 96 168 L 98 166 L 101 166 L 103 164 L 106 164 L 108 162 L 111 162 L 121 157 L 132 149 L 153 140 L 158 136 Q 160 137 159 134 L 167 128 L 178 123 L 195 112 L 208 108 L 221 108 Q 225 111 234 110 L 236 112 L 244 114 L 273 131 L 315 160 L 331 168 L 352 173 L 379 173 L 389 170 L 394 170 L 412 162 L 432 149 L 448 142 Q 450 143 449 140 L 464 129 L 482 123 L 495 123 Q 497 126 503 125 L 505 127 L 508 127 L 535 140 L 554 151 L 557 151 L 559 153 L 562 153 L 580 160 L 586 160 L 593 162 L 611 162 Q 615 159 624 160 L 636 155 L 646 154 L 648 154 L 654 153 L 681 138 Q 683 139 682 136 L 698 127 L 704 121 L 727 106 L 741 99 Q 745 100 747 97 L 753 97 L 756 95 L 770 95 L 771 94 L 791 95 Q 792 98 798 97 L 800 99 L 803 99 L 816 104 L 840 121 L 848 125 L 851 125 L 853 127 L 877 134 L 880 136 L 885 136 L 888 138 Q 895 137 899 140 L 917 140 L 928 134 L 935 134 L 942 132 Q 959 126 970 112 L 973 110 L 982 101 L 989 87 L 989 83 L 981 94 L 979 97 L 961 109 L 949 113 L 947 115 L 943 115 L 918 124 L 898 124 L 871 117 L 864 113 L 860 113 L 858 111 L 855 111 L 853 109 L 844 106 L 832 100 L 820 91 L 807 85 L 804 85 L 802 83 L 797 83 L 794 81 L 784 79 L 758 79 Z M 1008 116 L 1007 117 Q 1004 116 1005 119 L 1003 119 L 1003 121 L 988 136 L 971 146 L 964 148 L 962 150 L 959 150 L 957 152 L 953 152 L 951 154 L 947 154 L 945 156 L 941 156 L 938 158 L 923 161 L 919 163 L 903 165 L 899 167 L 887 167 Q 884 163 876 165 L 857 158 L 853 158 L 845 154 L 835 152 L 790 130 Q 782 131 779 128 L 769 128 L 761 130 L 754 130 L 737 137 L 712 152 L 710 152 L 687 169 Q 684 168 685 171 L 668 178 L 663 178 L 661 180 L 655 180 Q 652 183 646 182 L 643 184 L 635 184 L 623 187 L 604 187 L 594 184 L 587 184 Q 585 181 580 182 L 561 174 L 531 158 L 528 158 L 520 154 L 516 154 L 513 152 L 505 152 L 504 151 L 479 152 Q 477 155 472 154 L 464 158 L 438 178 L 413 191 L 398 197 L 395 197 L 390 200 L 371 204 L 348 204 L 344 202 L 339 202 L 329 199 L 315 193 L 278 167 Q 275 168 276 165 L 273 164 L 252 148 L 237 143 L 232 144 Q 225 146 224 143 L 206 143 L 193 146 L 181 152 L 159 167 Q 155 166 156 169 L 154 169 Q 137 183 116 193 L 113 193 L 105 197 L 94 200 L 70 199 L 60 195 L 53 195 L 52 198 L 60 203 L 63 203 L 70 207 L 74 207 L 83 211 L 104 211 L 111 209 L 113 207 L 116 207 L 118 205 L 121 205 L 123 203 Q 126 204 125 201 L 128 201 L 136 196 L 152 183 Q 154 184 153 181 L 173 168 Q 175 169 174 166 L 198 153 Q 204 154 206 151 L 227 151 L 228 152 Q 233 154 235 151 Q 238 154 245 153 L 259 162 Q 261 161 260 164 Q 271 169 280 179 Q 282 178 281 181 L 286 183 Q 301 198 320 209 L 335 216 Q 345 215 351 218 Q 359 219 364 216 L 380 216 L 404 209 L 432 194 L 472 164 Q 476 165 477 162 L 482 162 L 485 160 L 500 160 L 501 159 L 516 162 L 529 171 Q 548 179 564 190 L 567 190 L 569 192 L 577 194 L 585 198 L 593 198 L 597 200 L 607 201 L 610 203 L 635 203 L 639 201 L 645 201 L 661 196 L 665 196 L 675 192 L 679 192 L 681 190 L 685 190 L 703 177 Q 705 178 704 175 L 710 172 L 717 164 L 737 151 L 754 144 L 781 144 Q 782 147 789 145 L 822 160 L 861 175 L 865 175 L 881 181 L 894 182 L 895 183 Q 903 184 907 181 L 916 181 Q 919 178 926 179 L 929 177 L 934 177 L 937 175 L 942 175 L 947 172 L 961 168 L 963 166 L 966 166 L 968 164 L 971 164 L 973 162 L 976 162 L 988 151 L 991 149 L 1002 137 L 1002 134 L 1004 132 L 1004 129 L 1006 127 L 1006 124 L 1009 118 Q 1010 115 1008 116 Z M 761 167 L 735 180 Q 707 202 676 219 L 673 219 L 671 221 L 656 227 Q 649 227 645 230 L 637 230 L 630 232 L 628 231 L 617 231 L 616 230 L 601 230 Q 597 227 590 228 L 585 225 L 581 225 L 579 223 L 576 223 L 568 219 L 535 197 Q 532 198 533 195 Q 527 194 524 189 L 510 182 L 506 182 L 504 180 L 490 180 Q 489 183 484 182 L 482 184 L 479 184 L 477 186 L 464 191 L 447 202 Q 444 201 445 204 L 442 206 Q 438 205 439 208 L 403 230 L 395 232 L 393 234 Q 384 233 381 236 L 355 236 L 350 234 L 342 234 Q 340 231 336 232 L 318 223 L 276 195 Q 273 196 274 193 L 272 193 L 253 180 L 250 180 L 248 178 L 237 174 Q 231 176 230 173 L 215 173 L 198 178 L 177 189 L 174 189 L 126 219 L 123 219 L 117 223 L 113 223 L 100 228 L 81 227 Q 77 224 70 225 L 41 213 Q 42 219 47 222 Q 49 221 48 224 L 64 233 Q 69 232 70 235 L 75 235 L 78 237 L 86 237 L 87 238 L 90 237 L 98 239 L 112 237 L 121 233 L 124 233 L 126 231 L 129 231 L 131 229 L 134 229 L 151 220 L 159 214 L 161 214 L 170 207 L 180 203 L 199 192 Q 203 193 205 190 L 214 190 L 217 188 L 224 188 L 228 186 L 250 190 L 267 201 Q 269 200 268 203 L 311 231 Q 313 230 312 233 L 319 235 L 327 241 L 337 246 L 340 246 L 342 248 L 347 248 L 350 250 Q 356 248 358 251 L 366 251 L 367 252 L 378 252 L 387 250 L 394 250 Q 395 247 401 248 L 403 246 L 406 246 L 411 242 Q 413 243 412 240 L 431 227 L 440 218 Q 442 219 441 216 L 443 216 L 443 214 Q 449 212 453 207 Q 456 208 455 205 L 458 205 L 458 203 L 472 196 L 475 196 L 482 192 L 492 190 L 495 188 L 503 188 L 519 194 L 559 220 L 573 231 L 579 233 L 588 239 L 604 244 L 612 244 L 615 246 L 648 246 L 667 240 L 700 220 Q 710 210 724 203 L 744 186 L 765 177 L 780 177 L 809 190 L 817 196 L 851 209 L 866 211 L 876 214 L 878 216 Q 884 215 887 218 L 902 218 L 907 220 L 920 220 L 921 221 L 937 221 L 938 220 L 962 220 L 965 222 L 983 222 Q 985 219 992 220 L 1022 209 L 1025 209 L 1037 201 L 1042 194 L 1042 192 L 1043 189 L 1042 184 L 1039 181 L 1016 195 L 1013 195 L 994 202 L 990 202 L 987 204 L 982 204 L 980 206 Q 973 205 970 208 L 962 208 L 959 210 L 923 210 Q 915 206 902 208 L 896 206 L 874 206 Q 870 203 862 204 L 832 195 L 825 191 L 822 191 L 802 178 L 780 169 Q 775 170 774 167 L 761 167 Z M 787 210 L 778 212 L 768 212 L 748 219 L 720 234 L 693 253 L 680 260 L 647 273 Q 639 272 635 275 L 622 275 L 617 273 L 608 273 Q 605 270 600 271 L 589 266 L 586 266 L 569 256 L 558 253 L 552 249 Q 548 250 549 247 L 546 247 L 534 240 Q 530 241 531 238 L 519 230 L 501 223 L 489 223 L 475 227 L 461 234 L 454 240 L 451 242 L 449 245 L 434 258 Q 431 257 432 260 L 430 260 L 419 268 L 410 271 L 408 273 L 387 279 L 359 279 Q 355 276 347 277 L 345 275 L 338 275 L 336 273 L 331 273 L 320 269 L 306 260 Q 303 261 304 258 L 302 258 L 302 257 Q 277 241 258 221 L 247 215 L 238 212 L 210 212 L 198 217 L 195 217 L 193 219 L 190 219 Q 156 239 127 262 L 106 271 Q 100 270 99 273 L 93 273 L 90 275 L 65 275 L 62 273 L 56 273 Q 55 270 50 271 L 43 266 L 39 266 Q 38 271 41 274 L 47 278 L 54 281 L 64 283 L 70 287 L 81 289 L 90 289 Q 93 286 100 287 L 102 285 L 106 285 L 108 283 L 124 278 L 136 272 L 148 263 Q 150 264 149 261 L 155 259 L 177 242 L 179 239 L 197 226 L 212 223 L 242 224 Q 257 229 266 241 Q 265 243 268 242 L 268 244 L 276 250 Q 278 249 277 252 L 282 255 Q 284 254 283 257 L 290 261 L 304 274 Q 306 273 305 276 L 308 276 L 314 281 L 327 287 L 362 296 L 382 296 L 383 295 L 400 293 Q 424 286 441 270 L 457 252 Q 459 253 458 250 L 460 250 L 460 248 L 462 248 L 462 246 L 481 235 Q 485 236 486 233 L 492 233 L 496 231 L 501 231 L 515 235 L 530 246 Q 533 245 532 248 L 535 248 L 546 255 L 552 257 L 582 276 Q 594 280 603 287 Q 610 286 613 289 L 621 289 L 624 291 Q 630 289 632 292 L 655 291 Q 656 288 662 289 L 664 287 L 669 287 L 671 285 L 679 283 L 703 268 L 723 253 L 740 244 L 748 237 L 758 233 L 762 233 L 764 231 L 769 231 L 772 229 L 785 229 L 786 228 L 816 229 L 848 246 L 856 248 L 870 255 L 880 257 L 883 259 L 888 259 L 890 261 L 895 261 L 898 263 L 902 263 L 905 265 L 915 266 L 918 268 L 928 268 L 933 270 L 949 270 Q 956 267 968 268 L 987 261 L 991 261 L 993 259 L 997 259 L 1003 253 L 1009 240 L 1008 236 L 1005 236 L 1003 238 L 1000 238 L 989 243 L 985 243 L 969 249 L 955 252 L 929 251 L 925 249 L 917 249 L 913 247 L 905 247 Q 903 244 897 245 L 894 243 L 890 243 L 873 238 L 870 236 L 866 236 L 864 234 L 861 234 L 859 232 L 856 232 L 854 230 L 836 223 L 830 219 L 811 212 L 804 212 L 797 210 L 787 210 Z " /><path fill="rgb(250,250,250)" stroke="rgb(250,250,250)" stroke-width="1" opacity="0.984313725490196" d="M 757.5 79 L 783.5 79 L 793.5 81 L 796.5 83 L 801.5 83 L 803.5 85 L 806.5 85 L 819.5 91 L 831.5 100 L 843.5 106 L 852.5 109 L 854.5 111 L 857.5 111 L 859.5 113 L 863.5 113 L 870.5 117 L 897.5 124 L 917.5 124 L 942.5 115 L 946.5 115 L 948.5 113 L 960.5 109 L 979 96.5 L 981 93.5 L 988.5 83 L 989 86.5 L 982 100.5 L 972.5 110 L 969.5 112 Q 959.2 125.7 941.5 132 L 934.5 134 L 927.5 134 L 916.5 140 L 898.5 140 Q 894.9 137.1 887.5 138 L 884.5 136 L 879.5 136 L 876.5 134 L 852.5 127 L 850.5 125 L 847.5 125 L 839.5 121 L 815.5 104 L 802.5 99 L 799.5 99 L 797.5 97 Q 792.2 97.8 790.5 95 L 770.5 94 L 769.5 95 L 755.5 95 L 752.5 97 L 746.5 97 Q 745.1 99.6 740.5 99 L 726.5 106 L 703.5 121 L 697.5 127 L 682 136 Q 683.1 138.7 680.5 138 L 653.5 153 L 647.5 154 L 645.5 154 L 635.5 155 L 623.5 160 Q 615.1 159.1 610.5 162 L 592.5 162 L 585.5 160 L 579.5 160 L 561.5 153 L 558.5 153 L 556.5 151 L 553.5 151 L 534.5 140 L 507.5 127 L 504.5 127 L 502.5 125 Q 496.5 126 494.5 123 L 481.5 123 L 463.5 129 L 449 140 Q 450.1 142.7 447.5 142 L 431.5 149 L 411.5 162 L 393.5 170 L 388.5 170 L 378.5 173 L 351.5 173 L 330.5 168 L 314.5 160 L 272.5 131 L 243.5 114 L 235.5 112 L 233.5 110 Q 225.1 110.9 220.5 108 L 207.5 108 L 194.5 112 L 177.5 123 L 166.5 128 L 159 134 Q 160.1 136.7 157.5 136 L 152.5 140 L 131.5 149 L 120.5 157 L 110.5 162 L 107.5 162 L 105.5 164 L 102.5 164 L 100.5 166 L 97.5 166 L 95.5 168 Q 90.2 167.2 88.5 170 L 77.5 171 L 76.5 170 L 58.5 168 Q 56.5 165.2 52 166 Q 53.1 163.3 50.5 164 L 48 160.5 L 51.5 159 L 62.5 163 L 74.5 164 L 89.5 161 L 110.5 152 L 122.5 145 L 154 119 L 154 117 L 156 117 Q 154.9 114.3 157.5 115 L 175.5 102 L 187.5 96 L 201.5 93 L 215.5 93 L 235.5 98 L 260.5 111 L 265.5 115 L 268 115 Q 266.8 118 270.5 117 L 303.5 141 L 322.5 152 L 325.5 152 L 332.5 156 L 337.5 156 L 340.5 158 L 345.5 158 L 351.5 160 L 374.5 160 L 375.5 159 L 382.5 159 Q 384.3 156.3 390.5 158 L 394.5 156 L 399.5 156 L 401.5 154 L 409.5 152 L 448 128 Q 446.9 125.3 449.5 126 L 456.5 120 L 469.5 113 Q 474.8 113.8 476.5 111 L 487.5 110 L 488.5 111 L 499.5 111 L 502.5 113 L 506.5 113 L 508.5 115 L 517.5 117 L 544.5 130 L 549.5 134 L 562.5 139 L 565.5 139 L 567.5 141 L 587.5 145 L 597.5 145 L 604.5 143 L 613.5 143 L 617.5 141 L 625.5 141 L 628.5 139 L 635.5 139 L 638.5 137 L 642.5 137 L 647.5 135 L 669.5 124 L 696.5 106 L 705.5 102 L 722.5 91 L 740.5 83 L 757.5 79 Z " /><path fill="rgb(250,250,250)" stroke="rgb(250,250,250)" stroke-width="1" opacity="0.984313725490196" d="M 1007.5 116 Q 1009.8 115.3 1009 117.5 L 1006 123.5 L 1006 126.5 L 1004 128.5 L 1004 131.5 L 1002 133.5 L 1002 136.5 L 990.5 149 L 987.5 151 L 975.5 162 L 972.5 162 L 970.5 164 L 967.5 164 L 965.5 166 L 962.5 166 L 960.5 168 L 946.5 172 L 941.5 175 L 936.5 175 L 933.5 177 L 928.5 177 L 925.5 179 Q 918.5 178 915.5 181 L 906.5 181 Q 902.5 184 894.5 183 L 893.5 182 L 880.5 181 L 864.5 175 L 860.5 175 L 821.5 160 L 788.5 145 Q 782.3 146.8 780.5 144 L 753.5 144 L 736.5 151 L 717 163.5 L 709.5 172 L 704 175 Q 705.1 177.7 702.5 177 L 684.5 190 L 680.5 190 L 678.5 192 L 674.5 192 L 664.5 196 L 660.5 196 L 644.5 201 L 638.5 201 L 634.5 203 L 609.5 203 L 606.5 201 L 596.5 200 L 592.5 198 L 584.5 198 L 576.5 194 L 568.5 192 L 566.5 190 L 563.5 190 Q 547.6 178.9 528.5 171 L 515.5 162 L 500.5 159 L 499.5 160 L 484.5 160 L 481.5 162 L 476.5 162 Q 475.8 164.8 471.5 164 L 431.5 194 L 403.5 209 L 379.5 216 L 363.5 216 Q 359.1 219.1 350.5 218 Q 344.7 214.7 334.5 216 L 319.5 209 Q 300.8 197.7 285.5 183 L 281 181 Q 282.1 178.3 279.5 179 Q 271.4 169.4 260 164 Q 261.1 161.3 258.5 162 L 244.5 153 Q 237.5 154 234.5 151 Q 233 153.5 227.5 152 L 226.5 151 L 205.5 151 Q 203.5 154 197.5 153 L 174 166 Q 175.1 168.7 172.5 168 L 153 181 Q 154.1 183.7 151.5 183 L 135.5 196 L 127.5 201 L 125 201 Q 126.3 204 122.5 203 L 120.5 205 L 117.5 205 L 115.5 207 L 112.5 207 L 110.5 209 L 103.5 211 L 82.5 211 L 73.5 207 L 69.5 207 L 62.5 203 L 59.5 203 L 52 197.5 L 52.5 195 L 59.5 195 L 69.5 199 L 93.5 200 L 104.5 197 L 112.5 193 L 115.5 193 Q 136.5 183 153.5 169 L 156 169 Q 154.8 166 158.5 167 L 180.5 152 L 192.5 146 L 205.5 143 L 223.5 143 Q 225.3 145.7 231.5 144 L 236.5 143 L 251.5 148 L 272.5 164 L 276 165 Q 274.9 167.7 277.5 167 L 314.5 193 L 328.5 199 L 338.5 202 L 343.5 202 L 347.5 204 L 370.5 204 L 389.5 200 L 394.5 197 L 397.5 197 L 412.5 191 L 437.5 178 L 463.5 158 L 471.5 154 Q 476.8 154.8 478.5 152 L 503.5 151 L 504.5 152 L 512.5 152 L 515.5 154 L 519.5 154 L 527.5 158 L 530.5 158 L 560.5 174 L 579.5 182 Q 584.8 181.2 586.5 184 L 593.5 184 L 603.5 187 L 622.5 187 L 634.5 184 L 642.5 184 L 645.5 182 Q 652.2 183.2 654.5 180 L 660.5 180 L 662.5 178 L 667.5 178 L 685 171 Q 683.9 168.3 686.5 169 L 709.5 152 L 711.5 152 L 736.5 137 L 753.5 130 L 760.5 130 L 768.5 128 L 778.5 128 Q 782.1 130.9 789.5 130 L 834.5 152 L 844.5 154 L 852.5 158 L 856.5 158 L 875.5 165 Q 883.6 163.4 886.5 167 L 898.5 167 L 902.5 165 L 918.5 163 L 922.5 161 L 937.5 158 L 940.5 156 L 944.5 156 L 946.5 154 L 950.5 154 L 952.5 152 L 956.5 152 L 958.5 150 L 961.5 150 L 963.5 148 L 970.5 146 L 987.5 136 L 1003 120.5 L 1003 119 L 1005 119 Q 1003.9 116.3 1006.5 117 L 1007.5 116 Z " /><path fill="rgb(250,250,250)" stroke="rgb(250,250,250)" stroke-width="1" opacity="0.984313725490196" d="M 760.5 167 L 773.5 167 Q 774.9 169.6 779.5 169 L 801.5 178 L 821.5 191 L 824.5 191 L 831.5 195 L 861.5 204 Q 869.8 202.7 873.5 206 L 895.5 206 L 901.5 208 Q 914.6 206.4 922.5 210 L 958.5 210 L 961.5 208 L 969.5 208 Q 972.5 205 979.5 206 L 981.5 204 L 986.5 204 L 989.5 202 L 993.5 202 L 1012.5 195 L 1015.5 195 L 1038.5 181 L 1042 183.5 L 1043 188.5 L 1042 191.5 L 1042 193.5 L 1036.5 201 L 1024.5 209 L 1021.5 209 L 991.5 220 Q 985.2 219.2 982.5 222 L 964.5 222 L 961.5 220 L 937.5 220 L 936.5 221 L 920.5 221 L 919.5 220 L 906.5 220 L 901.5 218 L 886.5 218 Q 883.6 215.4 877.5 216 L 875.5 214 L 865.5 211 L 850.5 209 L 816.5 196 L 808.5 190 L 779.5 177 L 764.5 177 L 743.5 186 L 723.5 203 Q 710.1 210.1 699.5 220 L 666.5 240 L 647.5 246 L 614.5 246 L 611.5 244 L 603.5 244 L 587.5 239 L 578.5 233 L 572.5 231 L 558.5 220 L 518.5 194 L 502.5 188 L 494.5 188 L 491.5 190 L 481.5 192 L 474.5 196 L 471.5 196 L 458 203 L 458 205 L 455 205 Q 456.3 208 452.5 207 Q 449 212.3 443 214 L 443 216 L 441 216 Q 442.1 218.7 439.5 218 L 430.5 227 L 412 240 Q 413.1 242.7 410.5 242 L 405.5 246 L 402.5 246 L 400.5 248 Q 395.2 247.2 393.5 250 L 386.5 250 L 377.5 252 L 366.5 252 L 365.5 251 L 357.5 251 Q 355.7 248.3 349.5 250 L 346.5 248 L 341.5 248 L 339.5 246 L 336.5 246 L 326.5 241 L 318.5 235 L 312 233 Q 313.1 230.3 310.5 231 L 268 203 Q 269.1 200.3 266.5 201 L 249.5 190 L 227.5 186 L 223.5 188 L 216.5 188 L 213.5 190 L 204.5 190 Q 203.1 192.6 198.5 192 L 179.5 203 L 169.5 207 L 160.5 214 L 158.5 214 L 150.5 220 L 133.5 229 L 130.5 229 L 128.5 231 L 125.5 231 L 123.5 233 L 120.5 233 L 111.5 237 L 97.5 239 L 89.5 237 L 86.5 238 L 85.5 237 L 77.5 237 L 74.5 235 L 69.5 235 Q 68.5 232 63.5 233 L 48 224 Q 49.1 221.3 46.5 222 Q 41.9 218.9 41 213 L 69.5 225 Q 77.2 223.8 80.5 227 L 99.5 228 L 112.5 223 L 116.5 223 L 122.5 219 L 125.5 219 L 173.5 189 L 176.5 189 L 197.5 178 L 214.5 173 L 229.5 173 Q 231 175.5 236.5 174 L 247.5 178 L 249.5 180 L 252.5 180 L 271.5 193 L 274 193 Q 272.9 195.7 275.5 195 L 317.5 223 L 335.5 232 Q 340.1 231.4 341.5 234 L 349.5 234 L 354.5 236 L 380.5 236 Q 384.2 232.7 392.5 234 L 394.5 232 L 402.5 230 L 439 208 Q 437.8 205 441.5 206 L 445 204 Q 443.9 201.3 446.5 202 L 463.5 191 L 476.5 186 L 478.5 184 L 481.5 184 L 483.5 182 Q 488.5 183 489.5 180 L 503.5 180 L 505.5 182 L 509.5 182 L 523.5 189 Q 527 194 533 195 Q 531.9 197.7 534.5 197 L 567.5 219 L 575.5 223 L 578.5 223 L 580.5 225 L 584.5 225 L 589.5 228 Q 596.9 227.1 600.5 230 L 615.5 230 L 616.5 231 L 627.5 231 L 629.5 232 L 636.5 230 L 644.5 230 Q 648.5 227 655.5 227 L 670.5 221 L 672.5 219 L 675.5 219 Q 707.2 201.7 734.5 180 L 760.5 167 Z " /><path fill="rgb(250,250,250)" stroke="rgb(250,250,250)" stroke-width="1" opacity="0.984313725490196" d="M 786.5 210 L 796.5 210 L 803.5 212 L 810.5 212 L 829.5 219 L 835.5 223 L 853.5 230 L 855.5 232 L 858.5 232 L 860.5 234 L 863.5 234 L 865.5 236 L 869.5 236 L 872.5 238 L 889.5 243 L 893.5 243 L 896.5 245 Q 902.5 244 904.5 247 L 912.5 247 L 916.5 249 L 924.5 249 L 928.5 251 L 954.5 252 L 968.5 249 L 984.5 243 L 988.5 243 L 999.5 238 L 1002.5 238 L 1004.5 236 L 1007.5 236 L 1009 239.5 L 1003 252.5 L 996.5 259 L 992.5 259 L 990.5 261 L 986.5 261 L 967.5 268 Q 955.7 266.7 948.5 270 L 932.5 270 L 927.5 268 L 917.5 268 L 914.5 266 L 904.5 265 L 901.5 263 L 897.5 263 L 894.5 261 L 889.5 261 L 887.5 259 L 882.5 259 L 879.5 257 L 869.5 255 L 855.5 248 L 847.5 246 L 815.5 229 L 785.5 228 L 784.5 229 L 771.5 229 L 768.5 231 L 763.5 231 L 761.5 233 L 757.5 233 L 747.5 237 L 739.5 244 L 722.5 253 L 702.5 268 L 678.5 283 L 670.5 285 L 668.5 287 L 663.5 287 L 661.5 289 Q 656.2 288.2 654.5 291 L 631.5 292 Q 629.8 289.3 623.5 291 L 620.5 289 L 612.5 289 Q 609.5 286 602.5 287 Q 593.7 279.8 581.5 276 L 551.5 257 L 545.5 255 L 534.5 248 L 532 248 Q 533.3 245 529.5 246 L 514.5 235 L 500.5 231 L 495.5 231 L 491.5 233 L 485.5 233 Q 484.8 235.8 480.5 235 L 462 246 L 462 248 L 460 248 L 460 250 L 458 250 Q 459.1 252.7 456.5 252 L 440.5 270 Q 424.2 285.7 399.5 293 L 382.5 295 L 381.5 296 L 361.5 296 L 326.5 287 L 313.5 281 L 307.5 276 L 305 276 Q 306.1 273.3 303.5 274 L 289.5 261 L 283 257 Q 284.1 254.3 281.5 255 L 277 252 Q 278.1 249.3 275.5 250 L 268 244 L 268 242 Q 265.3 243.1 266 240.5 Q 256.9 229.1 241.5 224 L 211.5 223 L 196.5 226 L 179 238.5 L 177 241.5 L 154.5 259 L 149 261 Q 150.1 263.7 147.5 263 L 135.5 272 L 123.5 278 L 107.5 283 L 105.5 285 L 101.5 285 L 99.5 287 Q 92.5 286 89.5 289 L 80.5 289 L 69.5 287 L 63.5 283 L 53.5 281 L 46.5 278 L 41 273.5 Q 38 271.3 39 266 L 42.5 266 L 49.5 271 Q 54.5 270 55.5 273 L 61.5 273 L 64.5 275 L 89.5 275 L 92.5 273 L 98.5 273 Q 100.2 270.2 105.5 271 L 126.5 262 Q 156.2 238.7 189.5 219 L 192.5 219 L 194.5 217 L 197.5 217 L 209.5 212 L 237.5 212 L 246.5 215 L 257.5 221 Q 277.4 241.1 302 256.5 L 302 258 L 304 258 Q 302.9 260.7 305.5 260 L 319.5 269 L 330.5 273 L 335.5 273 L 337.5 275 L 344.5 275 L 346.5 277 Q 354.8 275.7 358.5 279 L 386.5 279 L 407.5 273 L 409.5 271 L 418.5 268 L 429.5 260 L 432 260 Q 430.9 257.3 433.5 258 L 449 245 L 450.5 242 L 453.5 240 L 460.5 234 L 474.5 227 L 488.5 223 L 500.5 223 L 518.5 230 L 531 238 Q 529.8 241 533.5 240 L 545.5 247 L 549 247 Q 547.8 250 551.5 249 L 557.5 253 L 568.5 256 L 585.5 266 L 588.5 266 L 599.5 271 Q 605.2 270.3 607.5 273 L 616.5 273 L 621.5 275 L 634.5 275 Q 638.5 272 646.5 273 L 679.5 260 L 692.5 253 L 719.5 234 L 747.5 219 L 767.5 212 L 777.5 212 L 786.5 210 Z " /></svg>